<?xml version="1.0" standalone="no"?>
<!DOCTYPE svg PUBLIC "-//W3C//DTD SVG 20010904//EN"
 "http://www.w3.org/TR/2001/REC-SVG-20010904/DTD/svg10.dtd">
<svg version="1.0" xmlns="http://www.w3.org/2000/svg"
 width="512.000000pt" height="512.000000pt" viewBox="0 0 512.000000 512.000000"
 preserveAspectRatio="xMidYMid meet">
<metadata>
Created by potrace 1.11, written by Peter Selinger 2001-2013
</metadata>
<g transform="translate(0.000000,512.000000) scale(0.100000,-0.100000)"
fill="#000000" stroke="none">
<path d="M2345 4799 c-358 -34 -722 -163 -1025 -364 -268 -178 -518 -438 -683
-710 -472 -778 -426 -1772 115 -2501 86 -115 238 -278 353 -377 l70 -61 5
1460 5 1459 22 65 c57 167 191 291 360 335 49 13 196 15 993 15 797 0 944 -2
993 -15 169 -44 303 -168 360 -335 l22 -65 5 -1459 5 -1460 70 61 c423 366
686 840 771 1393 25 159 25 481 0 640 -63 409 -226 782 -479 1095 -95 117
-286 300 -411 392 -442 328 -1001 484 -1551 432z"/>
<path d="M3215 3605 c-31 -31 -35 -42 -35 -85 0 -43 4 -54 35 -85 31 -31 42
-35 85 -35 43 0 54 4 85 35 31 31 35 42 35 85 0 43 -4 54 -35 85 -31 31 -42
35 -85 35 -43 0 -54 -4 -85 -35z"/>
<path d="M2430 3054 c-93 -25 -162 -64 -231 -133 -200 -201 -200 -521 0 -722
201 -200 521 -200 722 0 158 158 193 390 92 601 -34 71 -142 179 -213 213
-117 56 -255 72 -370 41z m251 -40 c157 -47 261 -145 318 -299 17 -46 22 -81
22 -155 0 -109 -20 -179 -78 -268 -177 -268 -589 -268 -766 0 -58 89 -78 159
-78 268 0 109 20 179 78 268 106 159 322 240 504 186z"/>
<path d="M2453 2985 c-175 -47 -295 -180 -326 -360 -31 -180 73 -379 238 -456
132 -62 258 -62 390 0 165 77 269 276 238 456 -45 260 -294 426 -540 360z
m142 -305 c25 0 74 -51 84 -86 26 -93 -60 -179 -152 -153 -91 25 -121 144 -53
208 25 24 73 42 94 35 8 -2 20 -4 27 -4z"/>
</g>
</svg>
